<svg class="glif" viewBox="0 0 108 183" fill="none" xmlns="http://www.w3.org/2000/svg">
<path d="M108 0H78V17.634C70.77 14.0806 62.625 12.0669 54 12.0669C24.225 12.0521 0 35.9639 0 65.3539C0 78.1907 4.62 89.9912 12.315 99.2005H0V128.813H30V113.089C37.23 116.642 45.375 118.656 54 118.656C83.775 118.656 108 94.7439 108 65.3539C108 51.6139 102.705 39.0732 94.02 29.6121H108V0ZM54 89.0436C40.77 89.0436 30 78.4128 30 65.3539C30 52.295 40.77 41.6642 54 41.6642C67.23 41.6642 78 52.295 78 65.3539C78 78.4128 67.23 89.0436 54 89.0436Z" fill="#5748FF"/>
<path d="M53.9966 128.82H29.9966V158.433H53.9966C67.2266 158.433 77.9966 169.063 77.9966 182.122H107.997C107.997 152.732 83.7716 128.82 53.9966 128.82Z" fill="#5748FF"/>
</svg>