<svg width="525" height="633" viewBox="0 0 525 633" fill="none" xmlns="http://www.w3.org/2000/svg">
<path fill-rule="evenodd" clip-rule="evenodd" d="M524.018 56.0545C524.018 41.684 512.368 30.0345 497.998 30.0345H482.696C440.736 30.0345 406.676 64.0092 406.676 106.018C406.675 170.128 406.674 268.668 406.676 294.057C406.678 308.427 418.328 320.076 432.699 320.074C447.069 320.073 458.718 308.423 458.716 294.052C458.714 268.667 458.715 170.131 458.716 106.019C458.716 92.7992 469.428 82.0745 482.696 82.0745H497.998C512.368 82.0745 524.018 70.4249 524.018 56.0545Z" fill="white"/>
<path fill-rule="evenodd" clip-rule="evenodd" d="M182.766 65.8269C292.448 37.1966 399.141 119.125 399.141 243.491C399.141 339.361 399.14 358.367 399.14 375.379C399.14 385.726 399.14 395.336 399.139 421.054C399.139 437.623 412.571 451.054 429.139 451.054C445.708 451.055 459.139 437.623 459.139 421.055C459.14 395.339 459.14 385.729 459.14 375.382C459.14 358.368 459.141 339.361 459.141 243.491C459.141 82.5696 317.91 -31.4725 167.594 7.77678L167.579 7.78057L167.565 7.78438C109.682 22.9602 61.463 55.1217 31.6605 100.087C1.60861 145.43 -8.30756 201.763 7.36383 261.54M182.766 65.8269C136.896 77.8566 102.124 102.379 81.6731 133.235C61.4703 163.717 53.8721 202.346 65.4033 246.328L65.4066 246.341L65.4099 246.353C82.8788 313.22 151.317 353.254 218.251 335.777C268.456 322.632 298.551 271.237 285.422 221.09L285.418 221.077C275.767 184.148 238.001 162.093 201.196 171.732C201.195 171.733 201.194 171.733 201.192 171.733C174.976 178.607 159.25 205.441 166.051 231.708C166.052 231.71 166.053 231.713 166.053 231.715C166.054 231.717 166.054 231.72 166.055 231.722C170.645 249.358 188.703 260.011 206.63 255.354C222.667 251.188 239.044 260.811 243.21 276.847C247.376 292.883 237.753 309.26 221.717 313.426C172 326.342 120.969 296.798 107.979 246.794L107.975 246.78C92.8789 188.551 127.706 128.968 185.984 113.693L185.988 113.692C254.864 95.649 325.427 136.903 343.465 205.893C365.003 288.154 315.652 372.298 233.448 393.82L233.433 393.824C134.508 419.668 33.2392 360.53 7.36487 261.544" fill="white"/>
<path fill-rule="evenodd" clip-rule="evenodd" d="M66.998 391.054C83.5666 391.054 96.998 404.486 96.998 421.054C96.998 504.449 164.603 572.054 247.998 572.054C331.393 572.054 398.998 504.449 398.998 421.054C398.998 404.486 412.43 391.054 428.998 391.054C445.567 391.054 458.998 404.486 458.998 421.054C458.998 537.587 364.53 632.054 247.998 632.054C131.466 632.054 36.998 537.587 36.998 421.054C36.998 404.486 50.4295 391.054 66.998 391.054Z" fill="white"/>
</svg>
